#!OML:ASF I:\golf\golf\golf 2\Subject 1\2002-09-07\Subject1.ASF
:FULLY-SPECIFIED
:DEGREES
389
root 0.986204 17.1442 -4.5115 35.0292 4.52523 0.64129
lowerback 30.2321 6.88721 -1.49208
upperback 13.0783 8.49521 6.22432
thorax -2.86626 3.86827 5.01268
lowerneck -15.1877 -6.87973 -6.45238
upperneck 6.72094 -7.64313 -2.87393
head 4.59142 -4.12949 -0.517249
rclavicle -7.31528e-014 -2.8625e-014
rhumerus 14.6946 5.57656 -61.468
rradius 37.0938
rwrist -9.69158
rhand -9.19603 10.2539
rfingers 7.12502
rthumb 16.7577 -19.0429
lclavicle -7.31528e-014 -2.8625e-014
lhumerus -3.7166 -60.9294 75.9193
lradius 66.6302
lwrist -14.8527
lhand -42.0734 12.1565
lfingers 7.12502
lthumb -14.9659 41.5957
rfemur -61.0544 -14.6972 18.3429
rtibia 49.5164
rfoot -13.7664 -13.2033
rtoes -5.96504
lfemur -67.9997 4.31807 -20.3949
ltibia 44.1356
lfoot -8.01927 -14.6793
ltoes -10.7551
390
root 0.959295 17.1666 -4.50705 34.3272 4.49936 0.421412
lowerback 29.8298 6.71801 -1.58593
upperback 12.9049 8.27856 6.17207
thorax -2.86573 3.77094 5.10017
lowerneck -15.4031 -6.62843 -6.09538
upperneck 6.89897 -7.31965 -3.18609
head 4.65295 -3.98554 -0.650116
rclavicle 9.54166e-015 5.00937e-014
rhumerus 13.5913 5.45652 -62.6164
rradius 37.0086
rwrist -9.54761
rhand -9.66013 10.0316
rfingers 7.12502
rthumb 16.3109 -19.3024
lclavicle 9.54166e-015 5.00937e-014
lhumerus -4.14897 -60.5363 76.5142
lradius 65.7939
lwrist -14.9264
lhand -41.7025 11.822
lfingers 7.12502
lthumb -14.6086 41.2875
rfemur -60.0239 -14.2556 18.308
rtibia 49.1654
rfoot -13.728 -13.4781
rtoes -6.67212
lfemur -67.0704 4.40999 -19.9354
ltibia 43.9334
lfoot -8.07768 -14.4271
ltoes -11.4344
391
root 0.928996 17.1928 -4.50091 33.5013 4.41258 0.23002
lowerback 29.5824 6.64063 -1.67591
upperback 12.7308 8.16888 6.05878
thorax -2.9357 3.7259 5.06926
lowerneck -15.6426 -6.44169 -5.48466
upperneck 7.12221 -7.12827 -3.54749
head 4.72435 -3.9043 -0.8502
rclavicle 2.54444e-014 -8.74653e-015
rhumerus 12.3531 5.14045 -63.7937
rradius 36.8885
rwrist -9.4656
rhand -10.9402 10.3129
rfingers 7.12502
rthumb 15.0781 -19.118
lclavicle 2.54444e-014 -8.74653e-015
lhumerus -4.58917 -60.4118 76.9722
lradius 65.0085
lwrist -15.079
lhand -41.235 11.6874
lfingers 7.12502
lthumb -14.1581 41.185
rfemur -58.8533 -13.7626 18.1987
rtibia 48.8287
rfoot -13.7272 -13.8096
rtoes -7.21339
lfemur -65.9692 4.56294 -19.5398
ltibia 43.7261
lfoot -8.11312 -14.2302
ltoes -11.3195
392
root 0.898936 17.217 -4.49277 32.6843 4.28468 0.0967712
lowerback 29.3027 6.56797 -1.82324
upperback 12.5314 8.04934 5.90128
thorax -3.01839 3.67641 5.02578
lowerneck -16.0161 -6.24771 -5.12658
upperneck 7.68785 -6.8919 -3.53462
head 4.94822 -3.79026 -0.9051
rclavicle -6.36111e-014 1.03368e-014
rhumerus 10.9966 4.92665 -64.9717
rradius 36.8879
rwrist -9.73139
rhand -12.6339 10.6151
rfingers 7.12502
rthumb 13.446 -18.9309
lclavicle -6.36111e-014 1.03368e-014
lhumerus -5.23213 -60.2842 77.5527
lradius 64.3121
lwrist -15.1652
lhand -40.6796 11.8053
lfingers 7.12502
lthumb -13.6229 41.3396
rfemur -57.6733 -13.2161 17.9766
rtibia 48.4915
rfoot -13.7108 -14.1519
rtoes -7.12602
lfemur -64.8459 4.69974 -19.2253
ltibia 43.4702
lfoot -8.18677 -14.0409
ltoes -11.1917
393
root 0.871792 17.2363 -4.48328 31.8634 4.30144 0.03208
lowerback 29.0105 6.40439 -1.90018
upperback 12.2575 7.84399 5.78974
thorax -3.16775 3.58935 5.01852
lowerneck -16.0922 -6.04893 -4.97729
upperneck 8.17616 -6.64217 -3.42588
head 5.11216 -3.66431 -0.884651
rclavicle -1.08139e-013 -6.67916e-014
rhumerus 9.39354 4.77505 -66.0224
rradius 37.1402
rwrist -9.98
rhand -14.4517 10.5466
rfingers 7.12502
rthumb 11.6936 -19.1071
lclavicle -1.08139e-013 -6.67916e-014
lhumerus -6.20661 -60.0989 78.538
lradius 63.5954
lwrist -15.3011
lhand -40.0224 11.8923
lfingers 7.12502
lthumb -12.9894 41.4679
rfemur -56.4347 -12.7386 17.7098
rtibia 48.1171
rfoot -13.6947 -14.5257
rtoes -7.16506
lfemur -63.683 4.65715 -18.8896
ltibia 43.1307
lfoot -8.35405 -13.816
ltoes -11.9159
394
root 0.842921 17.2629 -4.47332 31.0491 4.38457 -0.105792
lowerback 28.6707 6.21476 -1.92885
upperback 11.9538 7.62498 5.75103
thorax -3.33076 3.49633 5.07033
lowerneck -15.8356 -5.88156 -4.84286
upperneck 8.25353 -6.45773 -3.43784
head 5.0902 -3.56945 -0.885238
rclavicle -4.92986e-014 -2.38542e-015
rhumerus 7.76213 4.64252 -66.9221
rradius 37.3465
rwrist -10.2594
rhand -16.0394 10.6294
rfingers 7.12502
rthumb 10.1621 -19.1051
lclavicle -4.92986e-014 -2.38542e-015
lhumerus -7.42458 -59.7454 79.8285
lradius 62.7974
lwrist -15.6436
lhand -39.4698 11.7921
lfingers 7.12502
lthumb -12.4567 41.4009
rfemur -55.2248 -12.2927 17.6023
rtibia 47.7672
rfoot -13.7154 -14.9204
rtoes -7.26887
lfemur -62.5229 4.61506 -18.4397
ltibia 42.8165
lfoot -8.49611 -13.6068
ltoes -12.3491
395
root 0.815392 17.302 -4.45961 30.2539 4.36357 -0.23329
lowerback 27.9717 6.09489 -2.098
upperback 11.8582 7.45571 5.76365
thorax -3.11986 3.41747 5.27708
lowerneck -15.711 -5.75437 -4.74571
upperneck 8.15179 -6.32212 -3.41402
head 5.0353 -3.49545 -0.874212
rclavicle -6.36111e-015 1.03368e-014
rhumerus 6.39587 4.37588 -67.6675
rradius 37.4667
rwrist -10.6556
rhand -17.3452 10.9167
rfingers 7.12502
rthumb 8.9022 -18.8755
lclavicle -6.36111e-015 1.03368e-014
lhumerus -8.05096 -59.2979 80.7348
lradius 61.8679
lwrist -15.9411
lhand -38.9951 11.3705
lfingers 7.12502
lthumb -11.999 41.0065
rfemur -54.0166 -11.9204 17.5282
rtibia 47.3589
rfoot -13.6242 -15.2044
rtoes -7.73859
lfemur -61.302 4.66613 -18.0999
ltibia 42.4485
lfoot -8.626 -13.4434
ltoes -12.3935
396
root 0.790791 17.3103 -4.43862 29.4196 4.28979 -0.297794
lowerback 27.3169 5.95214 -2.28967
upperback 11.7392 7.24855 5.70001
thorax -2.93944 3.32078 5.41855
lowerneck -15.6178 -5.57975 -4.61044
upperneck 8.10917 -6.13568 -3.30754
head 5.00523 -3.39085 -0.841274
rclavicle 1.11319e-014 -2.54444e-014
rhumerus 4.92193 4.12297 -68.4805
rradius 37.7384
rwrist -10.9204
rhand -18.8285 11.1041
rfingers 7.12502
rthumb 7.47068 -18.744
lclavicle 1.11319e-014 -2.54444e-014
lhumerus -8.68404 -58.9519 81.5729
lradius 60.8837
lwrist -16.032
lhand -37.94 11.0638
lfingers 7.12502
lthumb -10.9814 40.7566
rfemur -52.884 -11.9795 17.5733
rtibia 47.0308
rfoot -13.6021 -15.0335
rtoes -8.08422
lfemur -60.1061 4.7294 -17.8641
ltibia 42.1452
lfoot -8.76518 -13.3231
ltoes -12.2092
397
root 0.764877 17.3392 -4.42047 28.6049 4.18028 -0.453362
lowerback 26.7004 5.84257 -2.39596
upperback 11.5984 7.10277 5.63945
thorax -2.79637 3.25532 5.49004
lowerneck -15.6569 -5.43337 -4.56464
upperneck 8.13226 -5.95962 -3.17922
head 5.02056 -3.29477 -0.794257
rclavicle 2.22639e-014 2.54444e-014
rhumerus 3.46739 3.71412 -69.2548
rradius 37.9819
rwrist -11.2575
rhand -20.1317 11.2832
rfingers 7.12502
rthumb 6.21269 -18.6057
lclavicle 2.22639e-014 2.54444e-014
lhumerus -9.20185 -58.7839 82.3304
lradius 59.9182
lwrist -16.1752
lhand -36.2998 11.1914
lfingers 7.12502
lthumb -9.39912 40.9618
rfemur -51.6952 -11.6535 17.5584
rtibia 46.6615
rfoot -13.7299 -15.1101
rtoes -7.46614
lfemur -58.9024 4.8786 -17.5645
ltibia 41.802
lfoot -8.90774 -13.2024
ltoes -12.1969
